<svg width="87" height="211" viewBox="0 0 87 211" fill="none" xmlns="http://www.w3.org/2000/svg">
<path d="M29.824 79.688C31.9573 76.36 34.9013 73.672 38.656 71.624C42.4107 69.576 46.8053 68.552 51.84 68.552C57.728 68.552 63.0613 70.0453 67.84 73.032C72.6187 76.0187 76.3733 80.2853 79.104 85.832C81.92 91.3787 83.328 97.8213 83.328 105.16C83.328 112.499 81.92 118.984 79.104 124.616C76.3733 130.163 72.6187 134.472 67.84 137.544C63.0613 140.531 57.728 142.024 51.84 142.024C46.8907 142.024 42.496 141 38.656 138.952C34.9013 136.904 31.9573 134.259 29.824 131.016V175.048H7.936V69.576H29.824V79.688ZM61.056 105.16C61.056 99.6987 59.52 95.432 56.448 92.36C53.4613 89.2027 49.7493 87.624 45.312 87.624C40.96 87.624 37.248 89.2027 34.176 92.36C31.1893 95.5173 29.696 99.8267 29.696 105.288C29.696 110.749 31.1893 115.059 34.176 118.216C37.248 121.373 40.96 122.952 45.312 122.952C49.664 122.952 53.376 121.373 56.448 118.216C59.52 114.973 61.056 110.621 61.056 105.16Z" fill="#2E094D" fill-opacity="0.93"/>
<circle cx="49.5" cy="105.5" r="10.5" fill="#AF52DE"/>
<circle cx="51.5" cy="105.5" r="5.5" fill="#1E1E1E"/>
</svg>
